<svg xmlns="http://www.w3.org/2000/svg" viewBox="0 0 1254 1254">
  <defs>
    <linearGradient id="topLeftSleeve" gradientUnits="userSpaceOnUse" x1="225" y1="270" x2="328" y2="544"><stop offset="0" stop-color="#03C6C8"/><stop offset="0.5" stop-color="#00BDC2"/><stop offset="1" stop-color="#03A7B3"/></linearGradient>
    <linearGradient id="topLeftShade" gradientUnits="userSpaceOnUse" x1="357" y1="240" x2="257" y2="543"><stop offset="0" stop-color="#009FA8" stop-opacity="0"/><stop offset="1" stop-color="#009CA7" stop-opacity="0.39"/></linearGradient>
    <linearGradient id="topSleeveInside" gradientUnits="userSpaceOnUse" x1="133" y1="399" x2="249" y2="567"><stop offset="0" stop-color="#028F99"/><stop offset="1" stop-color="#00737F"/></linearGradient>
    <linearGradient id="topRightSleeve" gradientUnits="userSpaceOnUse" x1="1053" y1="384" x2="952" y2="675"><stop offset="0" stop-color="#02C5C7"/><stop offset="0.5" stop-color="#00B9BF"/><stop offset="1" stop-color="#00A6B0"/></linearGradient>
    <linearGradient id="topRightLight" gradientUnits="userSpaceOnUse" x1="1007" y1="354" x2="1100" y2="555"><stop offset="0" stop-color="#30D9D7" stop-opacity="0.17"/><stop offset="1" stop-color="#22D8D7" stop-opacity="0"/></linearGradient>
    <linearGradient id="topRightInside" gradientUnits="userSpaceOnUse" x1="1122" y1="562" x2="1056" y2="695"><stop offset="0" stop-color="#048F99"/><stop offset="1" stop-color="#017C88"/></linearGradient>
    <linearGradient id="topCotton" gradientUnits="userSpaceOnUse" x1="400" y1="303" x2="931" y2="970"><stop offset="0" stop-color="#FBF9F2"/><stop offset="0.5" stop-color="#FCFAF4"/><stop offset="1" stop-color="#F6F1E8"/></linearGradient>
    <linearGradient id="topShoulderFold" gradientUnits="userSpaceOnUse" x1="367" y1="301" x2="476" y2="338"><stop offset="0" stop-color="#D1C5B4" stop-opacity="0"/><stop offset="1" stop-color="#C9BAA6" stop-opacity="0.18"/></linearGradient>
    <linearGradient id="topLeftFold" gradientUnits="userSpaceOnUse" x1="308" y1="447" x2="422" y2="510"><stop offset="0" stop-color="#D1C5B4" stop-opacity="0"/><stop offset="0.68" stop-color="#C8B9A5" stop-opacity="0.3"/><stop offset="1" stop-color="#D6CBBA" stop-opacity="0.13"/></linearGradient>
    <linearGradient id="topChestFold" gradientUnits="userSpaceOnUse" x1="540" y1="530" x2="714" y2="659"><stop offset="0" stop-color="#E0D6C7" stop-opacity="0"/><stop offset="0.57" stop-color="#CDBEA9" stop-opacity="0.35"/><stop offset="1" stop-color="#D9CEBD" stop-opacity="0.25"/></linearGradient>
    <linearGradient id="topSideFold" gradientUnits="userSpaceOnUse" x1="786" y1="663" x2="925" y2="760"><stop offset="0" stop-color="#D4C8B7" stop-opacity="0.08"/><stop offset="0.58" stop-color="#C6B7A2" stop-opacity="0.29"/><stop offset="1" stop-color="#DFD6C9" stop-opacity="0.14"/></linearGradient>
    <linearGradient id="topLowerLeftFold" gradientUnits="userSpaceOnUse" x1="245" y1="846" x2="313" y2="936"><stop offset="0" stop-color="#CFC1AE" stop-opacity="0.07"/><stop offset="1" stop-color="#C6B6A0" stop-opacity="0.3"/></linearGradient>
    <linearGradient id="topLowerFold" gradientUnits="userSpaceOnUse" x1="405" y1="940" x2="468" y2="1064"><stop offset="0" stop-color="#D1C4B2" stop-opacity="0.11"/><stop offset="1" stop-color="#C6B7A3" stop-opacity="0.24"/></linearGradient>
    <linearGradient id="topRightDrape" gradientUnits="userSpaceOnUse" x1="722" y1="934" x2="825" y2="1115"><stop offset="0" stop-color="#C8B8A2" stop-opacity="0.22"/><stop offset="1" stop-color="#DED3C3" stop-opacity="0.07"/></linearGradient>
    <linearGradient id="topHem" gradientUnits="userSpaceOnUse" x1="484" y1="1009" x2="521" y2="1156"><stop offset="0" stop-color="#CFC3B3"/><stop offset="0.56" stop-color="#DDD3C5"/><stop offset="1" stop-color="#E6DED1"/></linearGradient>
    <linearGradient id="topHemLight" gradientUnits="userSpaceOnUse" x1="405" y1="1064" x2="481" y2="1131"><stop offset="0" stop-color="#FFFCF5" stop-opacity="0.22"/><stop offset="1" stop-color="#FFFCF5" stop-opacity="0.61"/></linearGradient>
    <linearGradient id="topNeckCotton" gradientUnits="userSpaceOnUse" x1="653" y1="212" x2="748" y2="300"><stop offset="0" stop-color="#E8DFD2"/><stop offset="1" stop-color="#F1EBE0"/></linearGradient>
    <linearGradient id="topBackCollar" gradientUnits="userSpaceOnUse" x1="604" y1="181" x2="791" y2="249"><stop offset="0" stop-color="#05A8AE"/><stop offset="1" stop-color="#00999F"/></linearGradient>
    <linearGradient id="topCollar" gradientUnits="userSpaceOnUse" x1="558" y1="196" x2="813" y2="305"><stop offset="0" stop-color="#00BEC2"/><stop offset="0.49" stop-color="#00B9BF"/><stop offset="1" stop-color="#00A5AD"/></linearGradient>
    <linearGradient id="topCollarSeam" gradientUnits="userSpaceOnUse" x1="653" y1="306" x2="804" y2="300"><stop offset="0" stop-color="#008F9A" stop-opacity="0"/><stop offset="1" stop-color="#008F9A" stop-opacity="0.3"/></linearGradient>
  </defs>
  <path fill="url(#topLeftSleeve)" d="M 414 189 C 355 204 298 238 244 270 L 120 337 C 107 344 99 351 99 359 C 105 399 143 479 185 533 C 204 557 225 582 240 584 L 282 562 C 310 471 389 284 414 189 Z"/>
  <path fill="url(#topLeftShade)" d="M 383 203 C 333 247 289 306 251 369 C 220 420 193 464 169 493 C 195 533 223 573 240 584 L 282 562 C 310 471 389 284 414 189 C 404 192 393 196 383 203 Z"/>
  <path fill="url(#topSleeveInside)" d="M 100 355 C 125 360 170 411 202 467 C 226 508 240 549 241 581 C 236 590 221 574 204 555 C 161 508 121 439 105 389 C 100 374 98 362 100 355 Z"/>
  <path fill="url(#topRightSleeve)" d="M 964 301 C 1011 351 1067 400 1124 443 C 1155 466 1185 488 1200 503 C 1208 512 1197 541 1184 564 C 1147 630 1082 688 1013 725 C 1001 733 989 737 979 728 C 940 683 919 613 911 548 C 902 462 912 370 964 301 Z"/>
  <path fill="url(#topRightLight)" d="M 964 301 C 1011 351 1067 400 1124 443 C 1155 466 1185 488 1200 503 C 1161 506 1123 523 1086 549 C 1030 504 984 423 964 301 Z"/>
  <path fill="url(#topRightInside)" d="M 1200 509 C 1208 522 1185 565 1162 597 C 1121 654 1058 708 1013 729 C 1003 734 996 736 993 731 C 1008 694 1040 650 1073 610 C 1118 554 1168 510 1200 509 Z"/>
  <path fill="url(#topCotton)" d="M 414 189 C 460 177 509 162 552 153 L 585 149 C 650 208 756 231 837 205 C 882 232 925 265 964 301 C 916 366 901 453 911 548 C 919 619 941 680 976 717 C 946 830 900 986 847 1133 C 844 1144 837 1154 820 1155 C 721 1155 570 1135 445 1091 C 326 1050 207 1024 167 992 C 183 928 202 851 220 769 C 240 681 256 596 282 534 C 331 420 394 294 414 189 Z"/>
  <path fill="url(#topShoulderFold)" d="M 487 213 C 443 245 395 299 359 357 C 333 398 312 445 295 505 C 320 462 357 422 394 385 C 432 344 457 306 475 262 C 484 238 490 220 487 213 Z"/>
  <path fill="url(#topLeftFold)" d="M 503 302 C 465 347 412 405 354 457 C 320 487 291 512 279 545 C 269 575 261 611 254 650 C 315 604 374 544 420 478 C 460 420 487 359 503 302 Z"/>
  <path fill="url(#topChestFold)" d="M 884 296 C 815 378 723 449 629 511 C 548 565 519 607 478 683 C 444 748 410 826 378 889 C 490 831 592 747 685 641 C 776 537 845 420 884 296 Z"/>
  <path fill="url(#topSideFold)" d="M 924 369 C 891 490 846 589 812 684 C 779 778 780 870 838 1001 C 852 921 883 842 900 779 C 909 745 912 722 910 706 C 918 731 922 752 923 769 C 943 733 958 706 962 689 C 918 603 901 477 924 369 Z"/>
  <path fill="url(#topLowerLeftFold)" d="M 360 764 C 310 801 244 873 188 943 C 181 957 175 972 171 985 C 195 979 222 981 246 985 C 288 924 331 839 360 764 Z"/>
  <path fill="url(#topLowerFold)" d="M 546 908 C 469 943 380 973 292 992 C 345 1009 404 1046 448 1071 C 489 1027 525 968 546 919 C 550 910 550 906 546 908 Z"/>
  <path fill="url(#topRightDrape)" d="M 727 875 C 711 896 714 1018 738 1110 C 779 1115 812 1124 844 1141 C 819 1097 781 1000 751 937 C 740 910 733 875 727 875 Z"/>
  <path fill="url(#topHem)" d="M 168 988 C 202 970 242 982 285 1002 C 351 1033 407 1065 486 1086 C 566 1108 638 1108 704 1110 C 765 1111 815 1122 845 1140 C 848 1147 837 1154 820 1155 C 721 1155 570 1135 445 1091 C 326 1050 207 1024 167 992 C 167 990 167 989 168 988 Z"/>
  <path fill="url(#topHemLight)" d="M 273 1024 C 353 1040 405 1065 486 1086 C 566 1108 638 1108 704 1110 C 744 1114 791 1135 820 1155 C 716 1154 570 1135 445 1091 C 390 1072 329 1051 273 1024 Z"/>
  <path fill="url(#topNeckCotton)" d="M 582 181 C 645 226 734 251 821 238 C 807 269 775 291 736 303 C 696 315 640 302 609 272 C 589 249 580 218 582 181 Z"/>
  <path fill="url(#topBackCollar)" d="M 585 149 C 645 201 747 232 837 205 L 855 219 L 820 246 C 735 260 646 233 582 189 C 578 174 579 160 585 149 Z"/>
  <path fill="url(#topCollar)" d="M 552 153 C 565 150 576 149 585 149 C 575 179 583 210 600 235 C 629 277 670 296 709 296 C 756 296 795 275 817 247 C 826 233 832 218 837 205 C 847 211 857 217 867 225 C 839 286 792 322 735 331 C 667 342 608 314 577 270 C 551 233 537 187 552 153 Z"/>
  <path fill="url(#topCollarSeam)" d="M 583 275 C 623 310 666 328 713 326 C 778 324 829 285 859 219 L 867 225 C 839 286 792 322 735 331 C 671 341 616 317 583 275 Z"/>
</svg>
