<svg xmlns="http://www.w3.org/2000/svg">
  <symbol id="reference-image" viewBox="0 0 24 24">
    <rect x="3" y="3" width="18" height="18" rx="2.5" fill="none" stroke="currentColor" stroke-linecap="round" stroke-linejoin="round" stroke-width="2.4" />
    <circle cx="9" cy="9" r="2" fill="none" stroke="currentColor" stroke-linecap="round" stroke-linejoin="round" stroke-width="2.4" />
    <path d="m21 15-3.1-3.1a2 2 0 0 0-2.8 0L6 21" fill="none" stroke="currentColor" stroke-linecap="round" stroke-linejoin="round" stroke-width="2.4" />
  </symbol>
  <symbol id="reference-video" viewBox="0 0 24 24">
    <path d="M7 4.9v14.2c0 .95 1.03 1.54 1.85 1.04l11.2-7.1a1.2 1.2 0 0 0 0-2.08l-11.2-7.1A1.2 1.2 0 0 0 7 4.9z" fill="currentColor" />
  </symbol>
  <symbol id="reference-audio" viewBox="0 0 24 24">
    <path d="M9 18V6l10-2v12" fill="none" stroke="currentColor" stroke-linecap="round" stroke-linejoin="round" stroke-width="2.4" />
    <circle cx="6" cy="18" r="3" fill="none" stroke="currentColor" stroke-width="2.4" />
    <circle cx="16" cy="16" r="3" fill="none" stroke="currentColor" stroke-width="2.4" />
  </symbol>
  <symbol id="reference-note" viewBox="0 0 24 24">
    <circle cx="12" cy="12" r="9" fill="none" stroke="currentColor" stroke-linecap="round" stroke-linejoin="round" stroke-width="2.4" />
    <circle cx="12" cy="12" r="4.5" fill="none" stroke="currentColor" stroke-linecap="round" stroke-linejoin="round" stroke-width="2.4" />
    <circle cx="12" cy="12" r="1.3" fill="currentColor" stroke="none" />
  </symbol>
  <symbol id="reference-arrow" viewBox="0 0 24 24">
    <path d="M15 14l5-5-5-5M4 20v-7a4 4 0 0 1 4-4h12" fill="none" stroke="currentColor" stroke-linecap="round" stroke-linejoin="round" stroke-width="2.4" />
  </symbol>
  <symbol id="reference-brush" viewBox="0 0 24 24">
    <path d="M9.06 11.9l8.07-8.06a2.85 2.85 0 1 1 4.03 4.03l-8.06 8.08M7.07 14.94c-1.66 0-3 1.35-3 3.02 0 1.33-2.5 1.52-2 2.02 1.08 1.1 2.49 2.02 4 2.02 2.2 0 4-1.8 4-4.04a3.01 3.01 0 0 0-3-3.02z" fill="none" stroke="currentColor" stroke-linecap="round" stroke-linejoin="round" stroke-width="2.4" />
  </symbol>
  <symbol id="reference-frame" viewBox="0 0 24 24">
    <path d="M7 22a5 5 0 0 1-2-4M3.3 14A6.8 6.8 0 0 1 2 10c0-4.4 4.5-8 10-8s10 3.6 10 8-4.5 8-10 8c-.5 0-1-.03-1.5-.1M7 16.9c.96.43 1.96.75 3 .92M5 18h10" fill="none" stroke="currentColor" stroke-linecap="round" stroke-linejoin="round" stroke-width="2.4" />
  </symbol>
</svg>
