<svg
  xmlns="http://www.w3.org/2000/svg"
  width="96"
  height="96"
  viewBox="0 0 24 24"
  color="#006876"
>
  <symbol id="brand" viewBox="0 0 24 24">
    <rect
      x="3"
      y="5"
      width="18"
      height="14"
      rx="2.5"
      fill="none"
      stroke="currentColor"
      stroke-linecap="round"
      stroke-linejoin="round"
      stroke-width="2"
    />
    <path
      d="M3 10h18M8 5v14"
      fill="none"
      stroke="currentColor"
      stroke-linecap="round"
      stroke-linejoin="round"
      stroke-width="2"
    />
  </symbol>

  <symbol id="plus" viewBox="0 0 24 24">
    <path
      d="M12 5.5v13M5.5 12h13"
      fill="none"
      stroke="currentColor"
      stroke-linecap="round"
      stroke-width="2.2"
    />
  </symbol>

  <symbol id="reference-add" viewBox="0 0 24 24">
    <path
      d="M12 5v14M5 12h14"
      fill="none"
      stroke="currentColor"
      stroke-linecap="round"
      stroke-width="2.4"
    />
  </symbol>

  <symbol id="reference-close" viewBox="0 0 24 24">
    <path
      d="M6 6l12 12M18 6L6 18"
      fill="none"
      stroke="currentColor"
      stroke-linecap="round"
      stroke-width="3.2"
    />
  </symbol>

  <symbol id="check" viewBox="0 0 24 24">
    <path
      d="M4.5 12.5l5 5L19.5 7"
      fill="none"
      stroke="currentColor"
      stroke-linecap="round"
      stroke-linejoin="round"
      stroke-width="3"
    />
  </symbol>

  <symbol id="chevron-down" viewBox="0 0 24 24">
    <path
      d="M6.5 9.5L12 15l5.5-5.5"
      fill="none"
      stroke="currentColor"
      stroke-linecap="round"
      stroke-linejoin="round"
      stroke-width="2.2"
    />
  </symbol>

  <symbol id="chevron-left" viewBox="0 0 24 24">
    <path
      d="M14.5 5.5L8 12l6.5 6.5"
      fill="none"
      stroke="currentColor"
      stroke-linecap="round"
      stroke-linejoin="round"
      stroke-width="2.4"
    />
  </symbol>

  <symbol id="chevron-right" viewBox="0 0 24 24">
    <path
      d="M9.5 5.5L16 12l-6.5 6.5"
      fill="none"
      stroke="currentColor"
      stroke-linecap="round"
      stroke-linejoin="round"
      stroke-width="2.4"
    />
  </symbol>

  <symbol id="annotation-point" viewBox="0 0 24 24">
    <circle cx="12" cy="12" r="5.2" fill="currentColor" />
    <circle
      cx="12"
      cy="12"
      r="9"
      fill="none"
      opacity=".4"
      stroke="currentColor"
      stroke-width="1.75"
    />
  </symbol>

  <symbol id="annotation-rect" viewBox="0 0 24 24">
    <rect x="4.5" y="6.5" width="15" height="11" rx="2.5" fill="currentColor" opacity=".24" />
    <rect
      x="4.5"
      y="6.5"
      width="15"
      height="11"
      rx="2.5"
      fill="none"
      stroke="currentColor"
      stroke-width="1.75"
    />
  </symbol>

  <symbol id="annotation-pen" viewBox="0 0 24 24">
    <path
      d="M3.5 20.5l.9-4L15.6 5.3a2.05 2.05 0 0 1 2.9 2.9L7.3 19.5l-3.8 1z"
      fill="none"
      stroke="currentColor"
      stroke-linecap="round"
      stroke-linejoin="round"
      stroke-width="1.75"
    />
    <path
      d="M13.8 7.1l2.9 2.9"
      fill="none"
      stroke="currentColor"
      stroke-linecap="round"
      stroke-linejoin="round"
      stroke-width="1.75"
    />
    <path d="M3.5 20.5l2.6-.3-2.3-2.3z" fill="currentColor" />
  </symbol>

  <symbol id="annotation-arrow" viewBox="0 0 24 24">
    <path
      d="M4 18.5C10 17 14.5 12.5 16.2 6.8"
      fill="none"
      stroke="currentColor"
      stroke-linecap="round"
      stroke-linejoin="round"
      stroke-width="1.75"
    />
    <path
      d="M11.6 5.4l4.9 1.2-1.2 4.9"
      fill="none"
      stroke="currentColor"
      stroke-linecap="round"
      stroke-linejoin="round"
      stroke-width="1.75"
    />
  </symbol>

  <symbol id="width-thin" viewBox="0 0 24 24">
    <line
      x1="4.5"
      y1="12"
      x2="19.5"
      y2="12"
      stroke="currentColor"
      stroke-linecap="round"
      stroke-width="1.6"
    />
    <circle cx="12" cy="12" r="1.6" fill="currentColor" />
  </symbol>

  <symbol id="width-medium" viewBox="0 0 24 24">
    <line
      x1="4.5"
      y1="12"
      x2="19.5"
      y2="12"
      stroke="currentColor"
      stroke-linecap="round"
      stroke-width="3"
    />
    <circle cx="12" cy="12" r="2.6" fill="currentColor" />
  </symbol>

  <symbol id="width-thick" viewBox="0 0 24 24">
    <line
      x1="4.5"
      y1="12"
      x2="19.5"
      y2="12"
      stroke="currentColor"
      stroke-linecap="round"
      stroke-width="5"
    />
    <circle cx="12" cy="12" r="3.8" fill="currentColor" />
  </symbol>

  <symbol id="undo" viewBox="0 0 24 24">
    <path
      d="M8.5 5.5L4 10l4.5 4.5"
      fill="none"
      stroke="currentColor"
      stroke-linecap="round"
      stroke-linejoin="round"
      stroke-width="1.75"
    />
    <path
      d="M4 10h9.5a5.5 5.5 0 0 1 0 11H11"
      fill="none"
      stroke="currentColor"
      stroke-linecap="round"
      stroke-linejoin="round"
      stroke-width="1.75"
    />
  </symbol>

  <symbol id="redo" viewBox="0 0 24 24">
    <path
      d="M15.5 5.5L20 10l-4.5 4.5"
      fill="none"
      stroke="currentColor"
      stroke-linecap="round"
      stroke-linejoin="round"
      stroke-width="1.75"
    />
    <path
      d="M20 10h-9.5a5.5 5.5 0 0 0 0 11H13"
      fill="none"
      stroke="currentColor"
      stroke-linecap="round"
      stroke-linejoin="round"
      stroke-width="1.75"
    />
  </symbol>

  <symbol id="trash" viewBox="0 0 24 24">
    <path
      d="M4.5 6.5h15M9.5 6.5V5a1 1 0 0 1 1-1h3a1 1 0 0 1 1 1v1.5M6.5 6.5l.8 12a1.6 1.6 0 0 0 1.6 1.5h6.2a1.6 1.6 0 0 0 1.6-1.5l.8-12"
      fill="none"
      stroke="currentColor"
      stroke-linecap="round"
      stroke-linejoin="round"
      stroke-width="1.75"
    />
    <path
      d="M10 11v5.5M14 11v5.5"
      fill="none"
      stroke="currentColor"
      stroke-linecap="round"
      stroke-linejoin="round"
      stroke-width="1.75"
    />
  </symbol>

  <symbol id="compare-split" viewBox="0 0 24 24">
    <rect
      x="3"
      y="4.5"
      width="18"
      height="15"
      rx="2.5"
      fill="none"
      stroke="currentColor"
      stroke-linecap="round"
      stroke-width="1.75"
    />
    <path
      d="M12 4.5v15"
      fill="none"
      stroke="currentColor"
      stroke-linecap="round"
      stroke-width="1.75"
    />
  </symbol>

  <symbol id="compare-handle" viewBox="0 0 24 24">
    <path
      d="M9 7.5v9M15 7.5v9"
      fill="none"
      stroke="currentColor"
      stroke-linecap="round"
      stroke-width="2.2"
    />
  </symbol>

  <symbol id="compass" viewBox="0 0 24 24">
    <circle
      cx="12"
      cy="12"
      r="8.5"
      fill="none"
      stroke="currentColor"
      stroke-linecap="round"
      stroke-width="2"
    />
    <path
      d="M15.5 8.5l-2 5-5 2 2-5z"
      fill="none"
      stroke="currentColor"
      stroke-linecap="round"
      stroke-width="2"
    />
  </symbol>

  <symbol id="model-nano-banana" viewBox="0 0 24 24">
    <path
      d="M12 4.5l1.7 4.6 4.6 1.7-4.6 1.7L12 17.1l-1.7-4.6-4.6-1.7 4.6-1.7z"
      fill="currentColor"
    />
    <circle cx="18" cy="17" r="1.6" fill="currentColor" />
  </symbol>

  <symbol id="model-gpt-image" viewBox="0 0 24 24">
    <circle cx="12" cy="7.8" r="3.1" fill="none" stroke="currentColor" stroke-width="1.75" />
    <circle cx="15.7" cy="14.3" r="3.1" fill="none" stroke="currentColor" stroke-width="1.75" />
    <circle cx="8.3" cy="14.3" r="3.1" fill="none" stroke="currentColor" stroke-width="1.75" />
  </symbol>

  <symbol id="model-seedream" viewBox="0 0 24 24">
    <path
      d="M8.5 16.5h7a3.4 3.4 0 0 0 .6-6.7 5 5 0 0 0-9.6-1.6A3.8 3.8 0 0 0 8.5 16.5z"
      fill="none"
      stroke="currentColor"
      stroke-linecap="round"
      stroke-linejoin="round"
      stroke-width="1.75"
    />
  </symbol>

  <symbol id="model-flux" viewBox="0 0 24 24">
    <path
      d="M4 8.5c2.7 0 2.7 3 5.3 3s2.7-3 5.4-3 2.7 3 5.3 3M4 14.5c2.7 0 2.7 3 5.3 3s2.7-3 5.4-3 2.7 3 5.3 3"
      fill="none"
      stroke="currentColor"
      stroke-linecap="round"
      stroke-width="1.75"
    />
  </symbol>

  <symbol id="model-midjourney" viewBox="0 0 24 24">
    <path d="M12.8 4.5l5.6 11h-5.6zM10.8 8.5l-4.4 7h4.4z" fill="currentColor" />
    <path
      d="M4.5 18.5h15"
      fill="none"
      stroke="currentColor"
      stroke-linecap="round"
      stroke-width="1.75"
    />
  </symbol>

  <symbol id="close" viewBox="0 0 24 24">
    <path
      d="M6 6l12 12M18 6L6 18"
      fill="none"
      stroke="currentColor"
      stroke-linecap="round"
      stroke-width="3.6"
    />
  </symbol>
</svg>
